<?xml version="1.0" encoding="utf-8"?>
<!-- Generator: Adobe Illustrator 21.0.0, SVG Export Plug-In . SVG Version: 6.00 Build 0)  -->
<svg version="1.1" id="Layer_1_copy" xmlns="http://www.w3.org/2000/svg" xmlns:xlink="http://www.w3.org/1999/xlink" x="0px"
	 y="0px" viewBox="0 0 476 62.2" enable-background="new 0 0 476 62.2" xml:space="preserve">
<g>
</g>
<g>
</g>
<g>
	<g>
		<path d="M76.7,0c-8.3,13.9-36.9,61-36.9,61H47h0c0,0,25.2-39.6,28.4-47.2C78.7,6.3,76.7,0,76.7,0z"/>
	</g>
</g>
<g>
	<g>
		<path d="M47.1,14l-7.2,0c28.4,47,28.4,47,28.4,47h7.1L47.1,14z"/>
	</g>
</g>
<g>
	<g>
		<path d="M36.4,43.5c-2.3-3.8-6.4-6.1-10.9-6.1h0L39.9,61l4.2-4.9L36.4,43.5z"/>
	</g>
</g>
<g>
	<g>
		<circle cx="57.9" cy="23.3" r="4.7"/>
	</g>
</g>
<g>
	<path d="M29,38H7v18h25v5H0V11h32v5H7v17h22V38z"/>
	<path d="M102.5,48H81.6L77,61h-6.9l19.1-50h5.8l19.1,50h-6.9L102.5,48z M83.6,43h16.9l-8.5-23.2L83.6,43z"/>
	<path d="M129,11l17.4,40.8L163.7,11h6.3v50h-7V41.6l0.7-21L146.2,61h-2.5l-17.4-40.4l0.7,20.9V61h-7V11H129z"/>
	<path d="M196.3,39.3c-5.6-1.6-9.7-3.6-12.3-6c-2.6-2.4-3.9-5.3-3.9-8.8c0-3.9,1.6-7.2,4.7-9.7c3.1-2.6,7.2-3.9,12.2-3.9
		c3.4,0,6.5,0.7,9.2,2c2.7,1.3,4.8,3.2,6.2,5.5c1.5,2.3,2.2,4.9,2.2,7.6h-6.6c0-3-1-5.4-2.9-7.1c-1.9-1.7-4.6-2.6-8.1-2.6
		c-3.2,0-5.8,0.7-7.6,2.1c-1.8,1.4-2.7,3.4-2.7,6c0,2,0.9,3.8,2.6,5.2c1.7,1.4,4.7,2.7,8.8,3.9c4.1,1.2,7.4,2.5,9.7,3.9
		c2.3,1.4,4.1,3,5.2,4.9c1.1,1.9,1.7,4.1,1.7,6.6c0,4-1.6,7.3-4.7,9.7c-3.2,2.4-7.4,3.6-12.6,3.6c-3.4,0-6.6-0.7-9.6-2
		c-3-1.3-5.3-3.1-6.9-5.4c-1.6-2.3-2.4-4.9-2.4-7.8h6.6c0,3,1.1,5.4,3.3,7.1c2.2,1.7,5.2,2.6,8.9,2.6c3.5,0,6.1-0.7,8-2.1
		c1.9-1.4,2.8-3.3,2.8-5.8s-0.9-4.3-2.6-5.7C203.9,41.9,200.8,40.6,196.3,39.3z"/>
	<path d="M251,37h-25v24h-2V11h31v2h-29v22h25V37z"/>
	<path d="M299,39.9c0,4.2-0.8,8-2.3,11.3c-1.5,3.3-3.7,5.8-6.5,7.6c-2.8,1.8-6,2.7-9.7,2.7c-5.5,0-10-2-13.4-5.9
		c-3.4-3.9-5.1-9.2-5.1-15.9v-7.1c0-4.2,0.8-8,2.3-11.3c1.5-3.3,3.7-5.8,6.5-7.6c2.8-1.8,6-2.7,9.7-2.7c3.7,0,6.9,0.9,9.7,2.7
		c2.8,1.8,5,4.3,6.5,7.6c1.5,3.3,2.3,7,2.3,11.2V39.9z M298,32.4c0-6.1-1.5-10.9-4.6-14.6c-3.1-3.7-7.2-5.5-12.4-5.5
		c-5.2,0-9.3,1.8-12.3,5.4c-3.1,3.6-4.6,8.6-4.6,14.8v7.3c0,4,0.7,7.5,2.1,10.6c1.4,3.1,3.4,5.4,5.9,7.1c2.6,1.7,5.6,2.5,9,2.5
		c5.2,0,9.4-1.8,12.4-5.5c3-3.6,4.6-8.6,4.6-14.9V32.4z"/>
	<path d="M330,40h-17v21h-2V11h15.7c4.9,0,8.9,1.3,11.8,3.9c2.9,2.6,4.4,6.1,4.4,10.5c0,3.4-1,6.4-3.1,8.9s-4.8,4.1-8,4.8L345,60.6
		V61h-1.9L330,40z M312,38h15.8c3.9,0,7-1.2,9.4-3.5c2.4-2.3,3.6-5.3,3.6-8.9c0-3.9-1.3-7-3.9-9.2c-2.6-2.3-6.2-3.4-10.8-3.4h-14V38
		z"/>
	<path d="M368.8,40.5L386.2,11h2.3L370,42.2V61h-2V42.2L349.1,11h2.5L368.8,40.5z"/>
	<path d="M431,39.9c0,4.2-0.8,8-2.3,11.3c-1.5,3.3-3.7,5.8-6.5,7.6c-2.8,1.8-6,2.7-9.7,2.7c-5.5,0-10-2-13.4-5.9
		c-3.4-3.9-5.1-9.2-5.1-15.9v-7.1c0-4.2,0.8-8,2.3-11.3c1.5-3.3,3.7-5.8,6.5-7.6c2.8-1.8,6-2.7,9.7-2.7c3.7,0,6.9,0.9,9.7,2.7
		c2.8,1.8,5,4.3,6.5,7.6c1.5,3.3,2.3,7,2.3,11.2V39.9z M429,32.4c0-6.1-1.5-10.9-4.6-14.6c-3.1-3.7-7.2-5.5-12.4-5.5
		c-5.2,0-9.3,1.8-12.3,5.4c-3.1,3.6-4.6,8.6-4.6,14.8v7.3c0,4,0.7,7.5,2.1,10.6c1.4,3.1,3.4,5.4,5.9,7.1c2.6,1.7,5.6,2.5,9,2.5
		c5.2,0,9.4-1.8,12.4-5.5c3-3.6,4.6-8.6,4.6-14.9V32.4z"/>
	<path d="M476,11v33.7c0,5.3-1.5,9.4-4.6,12.3c-3.1,2.9-7.2,4.4-12.4,4.4c-5.2,0-9.4-1.5-12.4-4.4c-3.1-2.9-4.6-7-4.6-12.2V11h2
		v33.6c0,4.6,1.4,8.2,4.1,10.9c2.7,2.7,6.4,4,10.9,4c4.5,0,8.2-1.3,10.9-4c2.7-2.7,4.1-6.3,4.1-11V11H476z"/>
</g>
<g>
</g>
<g>
</g>
<g>
</g>
<g>
</g>
<g>
</g>
</svg>
